<svg width="9" height="14" viewBox="0 0 9 14" fill="none" xmlns="http://www.w3.org/2000/svg">
<path fill-rule="evenodd" clip-rule="evenodd" d="M2.88519 7.88978C3.42946 7.40183 3.42946 6.59817 2.88519 6.11021L2.81082 6.04359C1.41574 4.79348 0.338072 3.82816 0.0132152 1.80476C-0.101721 1.09129 0.549342 0.5 1.33292 0.5H4.49997H7.66712C8.45067 0.5 9.10171 1.09129 8.98679 1.80476C8.66196 3.82816 7.58425 4.79348 6.18919 6.04359L6.11484 6.11021C5.57055 6.59817 5.57055 7.40183 6.11484 7.88978L6.18919 7.95641C7.58425 9.20655 8.66196 10.1719 8.98679 12.1953C9.10171 12.9087 8.45067 13.5 7.66712 13.5H4.49997H1.33292C0.549342 13.5 -0.101721 12.9087 0.0132152 12.1953C0.338072 10.1719 1.41574 9.20655 2.81082 7.95641L2.88519 7.88978ZM3.35808 8.99322L3.35303 8.99732C2.2899 9.88983 1.49889 10.5543 1.39579 12.1976C1.38937 12.2987 1.43602 12.3895 1.51208 12.4496C1.57124 12.4967 1.64864 12.525 1.73315 12.525H4.49997H7.26648C7.36624 12.525 7.45617 12.4855 7.518 12.4224C7.5758 12.3637 7.60931 12.2845 7.60384 12.1976C7.50076 10.5543 6.70973 9.88983 5.64698 8.99732C5.36569 8.76124 5.06551 8.50917 4.75418 8.21881C4.61392 8.08797 4.38574 8.08797 4.24548 8.21881C3.93581 8.50748 3.63736 8.75838 3.35808 8.99322Z" fill="#141414"/>
</svg>
